<?xml version="1.0" standalone="no"?>
<!DOCTYPE svg PUBLIC "-//W3C//DTD SVG 20010904//EN"
 "http://www.w3.org/TR/2001/REC-SVG-20010904/DTD/svg10.dtd">
<svg version="1.0" xmlns="http://www.w3.org/2000/svg"
 width="256.000000pt" height="256.000000pt" viewBox="0 0 256.000000 256.000000"
 preserveAspectRatio="xMidYMid meet">
<metadata>
Created by potrace 1.11, written by Peter Selinger 2001-2013
</metadata>
<g transform="translate(0.000000,256.000000) scale(0.100000,-0.100000)"
fill="#000000" stroke="none">
<path d="M839 2524 c-177 -33 -332 -136 -410 -271 -97 -169 -77 -455 40 -567
l29 -27 -23 -47 c-51 -106 -65 -186 -61 -337 3 -77 7 -157 10 -177 3 -20 8
-56 11 -80 20 -145 69 -384 129 -625 72 -291 90 -342 131 -369 21 -14 28 -14
42 -3 36 31 49 86 58 264 24 471 49 596 121 603 56 6 93 -64 109 -208 3 -30 7
-68 9 -85 2 -16 7 -57 10 -90 23 -211 42 -337 62 -410 19 -66 27 -77 54 -73
39 5 75 102 97 263 13 97 63 316 78 346 36 70 75 87 122 54 44 -31 50 -91 40
-402 -7 -187 1 -234 41 -261 21 -14 25 -12 55 20 17 19 44 66 59 104 20 54 74
252 93 344 2 8 26 114 55 235 29 121 57 240 62 265 12 55 20 63 78 79 142 40
255 163 297 324 22 85 21 383 -1 492 -3 11 -5 34 -6 50 -1 29 -6 25 -110 -84
l-110 -114 -82 14 c-79 13 -128 12 -224 -6 -40 -7 -42 -6 -65 31 -13 22 -47
76 -77 122 l-54 83 -19 -25 c-24 -31 -57 -105 -77 -171 -8 -29 -15 -107 -17
-187 -3 -111 0 -147 15 -195 27 -87 45 -125 86 -179 53 -70 88 -99 164 -138
l55 -27 -40 6 c-198 31 -338 117 -417 255 -51 90 -69 179 -64 330 2 74 8 146
13 160 6 14 13 42 17 62 l7 37 -68 21 c-78 25 -199 33 -264 19 -48 -11 -127
-46 -175 -79 l-32 -21 -20 43 c-53 111 -22 246 78 347 64 64 126 93 211 97
125 6 213 -22 304 -97 81 -67 125 -74 142 -21 14 42 0 86 -46 141 -101 120
-206 170 -370 175 -47 2 -116 -3 -152 -10z"/>
</g>
</svg>
